<svg viewBox="0 0 500 500" xmlns="http://www.w3.org/2000/svg" preserveAspectRatio="none" xmlns:xlink="http://www.w3.org/1999/xlink" width="800" id="blobSvg">
     <path id="blob" d="M471,296.5Q475,343,445.5,379.5Q416,416,379.5,445Q343,474,296.5,484Q250,494,211.5,465Q173,436,128,426.5Q83,417,60.5,377.5Q38,338,24,294Q10,250,24.5,206.5Q39,163,70.5,132.5Q102,102,137.5,83Q173,64,211.5,54.5Q250,45,295,39Q340,33,367,69.5Q394,106,426,135Q458,164,462.5,207Q467,250,471,296.5Z" fill="#ffffff"></path>
</svg>
