<svg id="wave" style="transform:rotate(0deg); transition: 0.3s" viewBox="0 0 1440 260" version="1.1" xmlns="http://www.w3.org/2000/svg"><defs><linearGradient id="sw-gradient-0" x1="0" x2="0" y1="1" y2="0"><stop stop-color="rgba(240, 185, 23, 1)" offset="0%"></stop><stop stop-color="rgba(240, 185, 23, 1)" offset="100%"></stop></linearGradient></defs><path style="transform:translate(0, 0px); opacity:1" fill="url(#sw-gradient-0)" d="M0,130L21.8,134.3C43.6,139,87,147,131,130C174.5,113,218,69,262,78C305.5,87,349,147,393,182C436.4,217,480,225,524,208C567.3,191,611,147,655,112.7C698.2,78,742,52,785,34.7C829.1,17,873,9,916,34.7C960,61,1004,121,1047,121.3C1090.9,121,1135,61,1178,34.7C1221.8,9,1265,17,1309,34.7C1352.7,52,1396,78,1440,86.7C1483.6,95,1527,87,1571,73.7C1614.5,61,1658,43,1702,56.3C1745.5,69,1789,113,1833,125.7C1876.4,139,1920,121,1964,130C2007.3,139,2051,173,2095,186.3C2138.2,199,2182,191,2225,177.7C2269.1,165,2313,147,2356,143C2400,139,2444,147,2487,164.7C2530.9,182,2575,208,2618,216.7C2661.8,225,2705,217,2749,203.7C2792.7,191,2836,173,2880,143C2923.6,113,2967,69,3011,47.7C3054.5,26,3098,26,3120,26L3141.8,26L3141.8,260L3120,260C3098.2,260,3055,260,3011,260C2967.3,260,2924,260,2880,260C2836.4,260,2793,260,2749,260C2705.5,260,2662,260,2618,260C2574.5,260,2531,260,2487,260C2443.6,260,2400,260,2356,260C2312.7,260,2269,260,2225,260C2181.8,260,2138,260,2095,260C2050.9,260,2007,260,1964,260C1920,260,1876,260,1833,260C1789.1,260,1745,260,1702,260C1658.2,260,1615,260,1571,260C1527.3,260,1484,260,1440,260C1396.4,260,1353,260,1309,260C1265.5,260,1222,260,1178,260C1134.5,260,1091,260,1047,260C1003.6,260,960,260,916,260C872.7,260,829,260,785,260C741.8,260,698,260,655,260C610.9,260,567,260,524,260C480,260,436,260,393,260C349.1,260,305,260,262,260C218.2,260,175,260,131,260C87.3,260,44,260,22,260L0,260Z"></path><defs><linearGradient id="sw-gradient-1" x1="0" x2="0" y1="1" y2="0"><stop stop-color="rgba(11, 22, 42, 1)" offset="0%"></stop><stop stop-color="rgba(11, 22, 42, 1)" offset="100%"></stop></linearGradient></defs><path style="transform:translate(0, 50px);" fill="url(#sw-gradient-1)" d="M0,52L21.8,69.3C43.6,87,87,121,131,121.3C174.5,121,218,87,262,91C305.5,95,349,139,393,160.3C436.4,182,480,182,524,156C567.3,130,611,78,655,47.7C698.2,17,742,9,785,13C829.1,17,873,35,916,34.7C960,35,1004,17,1047,43.3C1090.9,69,1135,139,1178,151.7C1221.8,165,1265,121,1309,99.7C1352.7,78,1396,78,1440,86.7C1483.6,95,1527,113,1571,112.7C1614.5,113,1658,95,1702,78C1745.5,61,1789,43,1833,34.7C1876.4,26,1920,26,1964,21.7C2007.3,17,2051,9,2095,8.7C2138.2,9,2182,17,2225,21.7C2269.1,26,2313,26,2356,52C2400,78,2444,130,2487,134.3C2530.9,139,2575,95,2618,91C2661.8,87,2705,121,2749,138.7C2792.7,156,2836,156,2880,143C2923.6,130,2967,104,3011,99.7C3054.5,95,3098,113,3120,121.3L3141.8,130L3141.8,260L3120,260C3098.2,260,3055,260,3011,260C2967.3,260,2924,260,2880,260C2836.4,260,2793,260,2749,260C2705.5,260,2662,260,2618,260C2574.5,260,2531,260,2487,260C2443.6,260,2400,260,2356,260C2312.7,260,2269,260,2225,260C2181.8,260,2138,260,2095,260C2050.9,260,2007,260,1964,260C1920,260,1876,260,1833,260C1789.1,260,1745,260,1702,260C1658.2,260,1615,260,1571,260C1527.3,260,1484,260,1440,260C1396.4,260,1353,260,1309,260C1265.5,260,1222,260,1178,260C1134.5,260,1091,260,1047,260C1003.6,260,960,260,916,260C872.7,260,829,260,785,260C741.8,260,698,260,655,260C610.9,260,567,260,524,260C480,260,436,260,393,260C349.1,260,305,260,262,260C218.2,260,175,260,131,260C87.3,260,44,260,22,260L0,260Z"></path></svg>