<svg id="wave" style="transform:rotate(180deg); transition: 0.3s" viewBox="0 0 1440 430" version="1.1" xmlns="http://www.w3.org/2000/svg"><defs><linearGradient id="sw-gradient-0" x1="0" x2="0" y1="1" y2="0"><stop stop-color="rgba(240, 185, 23, 1)" offset="0%"></stop><stop stop-color="rgba(240, 185, 23, 1)" offset="100%"></stop></linearGradient></defs><path style="transform:translate(0, 0px); opacity:1" fill="url(#sw-gradient-0)" d="M0,86L34.3,78.8C68.6,72,137,57,206,107.5C274.3,158,343,272,411,293.8C480,315,549,244,617,200.7C685.7,158,754,143,823,129C891.4,115,960,100,1029,136.2C1097.1,172,1166,258,1234,308.2C1302.9,358,1371,373,1440,322.5C1508.6,272,1577,158,1646,107.5C1714.3,57,1783,72,1851,129C1920,186,1989,287,2057,301C2125.7,315,2194,244,2263,236.5C2331.4,229,2400,287,2469,315.3C2537.1,344,2606,344,2674,293.8C2742.9,244,2811,143,2880,100.3C2948.6,57,3017,72,3086,107.5C3154.3,143,3223,201,3291,229.3C3360,258,3429,258,3497,279.5C3565.7,301,3634,344,3703,329.7C3771.4,315,3840,244,3909,222.2C3977.1,201,4046,229,4114,229.3C4182.9,229,4251,201,4320,172C4388.6,143,4457,115,4526,107.5C4594.3,100,4663,115,4731,164.8C4800,215,4869,301,4903,344L4937.1,387L4937.1,430L4902.9,430C4868.6,430,4800,430,4731,430C4662.9,430,4594,430,4526,430C4457.1,430,4389,430,4320,430C4251.4,430,4183,430,4114,430C4045.7,430,3977,430,3909,430C3840,430,3771,430,3703,430C3634.3,430,3566,430,3497,430C3428.6,430,3360,430,3291,430C3222.9,430,3154,430,3086,430C3017.1,430,2949,430,2880,430C2811.4,430,2743,430,2674,430C2605.7,430,2537,430,2469,430C2400,430,2331,430,2263,430C2194.3,430,2126,430,2057,430C1988.6,430,1920,430,1851,430C1782.9,430,1714,430,1646,430C1577.1,430,1509,430,1440,430C1371.4,430,1303,430,1234,430C1165.7,430,1097,430,1029,430C960,430,891,430,823,430C754.3,430,686,430,617,430C548.6,430,480,430,411,430C342.9,430,274,430,206,430C137.1,430,69,430,34,430L0,430Z"></path><defs><linearGradient id="sw-gradient-1" x1="0" x2="0" y1="1" y2="0"><stop stop-color="rgba(11, 22, 42, 1)" offset="0%"></stop><stop stop-color="rgba(11, 22, 42, 1)" offset="100%"></stop></linearGradient></defs><path style="transform:translate(0, 50px);" fill="url(#sw-gradient-1)" d="M0,129L34.3,164.8C68.6,201,137,272,206,265.2C274.3,258,343,172,411,157.7C480,143,549,201,617,215C685.7,229,754,201,823,157.7C891.4,115,960,57,1029,71.7C1097.1,86,1166,172,1234,172C1302.9,172,1371,86,1440,57.3C1508.6,29,1577,57,1646,64.5C1714.3,72,1783,57,1851,100.3C1920,143,1989,244,2057,236.5C2125.7,229,2194,115,2263,114.7C2331.4,115,2400,229,2469,265.2C2537.1,301,2606,258,2674,222.2C2742.9,186,2811,158,2880,179.2C2948.6,201,3017,272,3086,308.2C3154.3,344,3223,344,3291,351.2C3360,358,3429,373,3497,336.8C3565.7,301,3634,215,3703,207.8C3771.4,201,3840,272,3909,250.8C3977.1,229,4046,115,4114,121.8C4182.9,129,4251,258,4320,308.2C4388.6,358,4457,330,4526,301C4594.3,272,4663,244,4731,236.5C4800,229,4869,244,4903,250.8L4937.1,258L4937.1,430L4902.9,430C4868.6,430,4800,430,4731,430C4662.9,430,4594,430,4526,430C4457.1,430,4389,430,4320,430C4251.4,430,4183,430,4114,430C4045.7,430,3977,430,3909,430C3840,430,3771,430,3703,430C3634.3,430,3566,430,3497,430C3428.6,430,3360,430,3291,430C3222.9,430,3154,430,3086,430C3017.1,430,2949,430,2880,430C2811.4,430,2743,430,2674,430C2605.7,430,2537,430,2469,430C2400,430,2331,430,2263,430C2194.3,430,2126,430,2057,430C1988.6,430,1920,430,1851,430C1782.9,430,1714,430,1646,430C1577.1,430,1509,430,1440,430C1371.4,430,1303,430,1234,430C1165.7,430,1097,430,1029,430C960,430,891,430,823,430C754.3,430,686,430,617,430C548.6,430,480,430,411,430C342.9,430,274,430,206,430C137.1,430,69,430,34,430L0,430Z"></path></svg>