<svg xmlns="http://www.w3.org/2000/svg" version="1.1" xmlns:xlink="http://www.w3.org/1999/xlink" xmlns:svgjs="http://svgjs.com/svgjs" width="1440" height="560" preserveAspectRatio="none" viewBox="0 0 1440 560">
    <g mask="url(&quot;#SvgjsMask1140&quot;)" fill="none">
        <g mask="url(&quot;#SvgjsMask1141&quot;)">
            <path d="M1336.5 280.5L1303.5 313.5L1270.5 313.5L1237.5 313.5L1204.5 313.5M1369.5 280.5L1336.5 313.5M1402.5 280.5L1369.5 313.5M1468.5 280.5L1435.5 280.5L1402.5 280.5L1369.5 280.5L1336.5 280.5L1303.5 280.5L1270.5 280.5L1237.5 280.5L1204.5 280.5" stroke="rgba(20, 39, 78, 1)" stroke-width="5.5"></path>
            <path d="M1196.25 280.5 a8.25 8.25 0 1 0 16.5 0 a8.25 8.25 0 1 0 -16.5 0zM1196.25 313.5 a8.25 8.25 0 1 0 16.5 0 a8.25 8.25 0 1 0 -16.5 0zM1328.25 313.5 a8.25 8.25 0 1 0 16.5 0 a8.25 8.25 0 1 0 -16.5 0zM1361.25 313.5 a8.25 8.25 0 1 0 16.5 0 a8.25 8.25 0 1 0 -16.5 0z" fill="rgba(20, 39, 78, 1)"></path>
            <path d="M1303.5 247.5L1270.5 214.5M1369.5 247.5L1336.5 214.5L1303.5 214.5M1204.5 247.5L1171.5 214.5L1138.5 214.5M1468.5 247.5L1435.5 247.5L1402.5 247.5L1369.5 247.5L1336.5 247.5L1303.5 247.5L1270.5 247.5L1237.5 247.5L1204.5 247.5L1171.5 247.5L1138.5 247.5L1105.5 247.5L1072.5 247.5" stroke="rgba(240, 185, 23, 1)" stroke-width="5.5"></path>
            <path d="M1064.25 247.5 a8.25 8.25 0 1 0 16.5 0 a8.25 8.25 0 1 0 -16.5 0zM1262.25 214.5 a8.25 8.25 0 1 0 16.5 0 a8.25 8.25 0 1 0 -16.5 0zM1295.25 214.5 a8.25 8.25 0 1 0 16.5 0 a8.25 8.25 0 1 0 -16.5 0zM1130.25 214.5 a8.25 8.25 0 1 0 16.5 0 a8.25 8.25 0 1 0 -16.5 0z" fill="rgba(240, 185, 23, 1)"></path>
            <path d="M1468.5 313.5L1435.5 313.5" stroke="rgba(20, 39, 78, 1)" stroke-width="5.5"></path>
            <path d="M1427.25 313.5 a8.25 8.25 0 1 0 16.5 0 a8.25 8.25 0 1 0 -16.5 0z" fill="rgba(20, 39, 78, 1)"></path>
            <path d="M1468.5 214.5L1435.5 214.5L1402.5 214.5" stroke="rgba(11, 22, 42, 1)" stroke-width="5.5"></path>
            <path d="M1394.25 214.5 a8.25 8.25 0 1 0 16.5 0 a8.25 8.25 0 1 0 -16.5 0z" fill="rgba(11, 22, 42, 1)"></path>
            <path d="M1468.5 346.5L1435.5 346.5L1402.5 346.5L1369.5 346.5L1336.5 346.5L1303.5 346.5L1270.5 346.5L1237.5 346.5" stroke="rgba(11, 22, 42, 1)" stroke-width="5.5"></path>
            <path d="M1229.25 346.5 a8.25 8.25 0 1 0 16.5 0 a8.25 8.25 0 1 0 -16.5 0z" fill="rgba(11, 22, 42, 1)"></path>
            <path d="M1402.5 181.5L1369.5 181.5L1336.5 181.5M1303.5 148.5L1270.5 115.5L1237.5 115.5L1204.5 115.5M1204.5 181.5L1171.5 148.5L1138.5 148.5L1105.5 148.5L1072.5 181.5M1468.5 181.5L1435.5 181.5L1402.5 181.5L1369.5 148.5L1336.5 148.5L1303.5 148.5L1270.5 148.5L1237.5 181.5L1204.5 181.5L1171.5 181.5L1138.5 181.5L1105.5 181.5" stroke="rgba(240, 185, 23, 1)" stroke-width="5.5"></path>
            <path d="M1097.25 181.5 a8.25 8.25 0 1 0 16.5 0 a8.25 8.25 0 1 0 -16.5 0zM1328.25 181.5 a8.25 8.25 0 1 0 16.5 0 a8.25 8.25 0 1 0 -16.5 0zM1196.25 115.5 a8.25 8.25 0 1 0 16.5 0 a8.25 8.25 0 1 0 -16.5 0zM1064.25 181.5 a8.25 8.25 0 1 0 16.5 0 a8.25 8.25 0 1 0 -16.5 0z" fill="rgba(240, 185, 23, 1)"></path>
            <path d="M1171.5 379.5L1138.5 412.5L1105.5 412.5L1072.5 412.5L1039.5 412.5M1336.5 379.5L1303.5 412.5M1072.5 379.5L1039.5 346.5L1006.5 346.5L973.5 346.5M1468.5 379.5L1435.5 379.5L1402.5 379.5L1369.5 379.5L1336.5 379.5L1303.5 379.5L1270.5 379.5L1237.5 379.5L1204.5 379.5L1171.5 379.5L1138.5 379.5L1105.5 379.5L1072.5 379.5L1039.5 379.5L1006.5 379.5" stroke="rgba(11, 22, 42, 1)" stroke-width="5.5"></path>
            <path d="M998.25 379.5 a8.25 8.25 0 1 0 16.5 0 a8.25 8.25 0 1 0 -16.5 0zM1031.25 412.5 a8.25 8.25 0 1 0 16.5 0 a8.25 8.25 0 1 0 -16.5 0zM1295.25 412.5 a8.25 8.25 0 1 0 16.5 0 a8.25 8.25 0 1 0 -16.5 0zM965.25 346.5 a8.25 8.25 0 1 0 16.5 0 a8.25 8.25 0 1 0 -16.5 0z" fill="rgba(11, 22, 42, 1)"></path>
            <path d="M1435.5 148.5L1402.5 115.5L1369.5 82.5L1336.5 82.5L1303.5 82.5M1468.5 148.5L1435.5 148.5L1402.5 148.5L1369.5 115.5" stroke="rgba(20, 39, 78, 1)" stroke-width="5.5"></path>
            <path d="M1361.25 115.5 a8.25 8.25 0 1 0 16.5 0 a8.25 8.25 0 1 0 -16.5 0zM1295.25 82.5 a8.25 8.25 0 1 0 16.5 0 a8.25 8.25 0 1 0 -16.5 0z" fill="rgba(20, 39, 78, 1)"></path>
        </g>
    </g>
    <defs>
        <mask id="SvgjsMask1140">
            <rect width="1440" height="560" fill="#ffffff"></rect>
        </mask>
        <mask id="SvgjsMask1141">
            <rect width="1440" height="560" fill="white"></rect>
            <path d="M1200.37 280.5 a4.13 4.13 0 1 0 8.26 0 a4.13 4.13 0 1 0 -8.26 0zM1200.37 313.5 a4.13 4.13 0 1 0 8.26 0 a4.13 4.13 0 1 0 -8.26 0zM1332.37 313.5 a4.13 4.13 0 1 0 8.26 0 a4.13 4.13 0 1 0 -8.26 0zM1365.37 313.5 a4.13 4.13 0 1 0 8.26 0 a4.13 4.13 0 1 0 -8.26 0z" fill="black"></path>
            <path d="M1068.37 247.5 a4.13 4.13 0 1 0 8.26 0 a4.13 4.13 0 1 0 -8.26 0zM1266.37 214.5 a4.13 4.13 0 1 0 8.26 0 a4.13 4.13 0 1 0 -8.26 0zM1299.37 214.5 a4.13 4.13 0 1 0 8.26 0 a4.13 4.13 0 1 0 -8.26 0zM1134.37 214.5 a4.13 4.13 0 1 0 8.26 0 a4.13 4.13 0 1 0 -8.26 0z" fill="black"></path>
            <path d="M1431.37 313.5 a4.13 4.13 0 1 0 8.26 0 a4.13 4.13 0 1 0 -8.26 0z" fill="black"></path>
            <path d="M1398.37 214.5 a4.13 4.13 0 1 0 8.26 0 a4.13 4.13 0 1 0 -8.26 0z" fill="black"></path>
            <path d="M1233.37 346.5 a4.13 4.13 0 1 0 8.26 0 a4.13 4.13 0 1 0 -8.26 0z" fill="black"></path>
            <path d="M1101.37 181.5 a4.13 4.13 0 1 0 8.26 0 a4.13 4.13 0 1 0 -8.26 0zM1332.37 181.5 a4.13 4.13 0 1 0 8.26 0 a4.13 4.13 0 1 0 -8.26 0zM1200.37 115.5 a4.13 4.13 0 1 0 8.26 0 a4.13 4.13 0 1 0 -8.26 0zM1068.37 181.5 a4.13 4.13 0 1 0 8.26 0 a4.13 4.13 0 1 0 -8.26 0z" fill="black"></path>
            <path d="M1002.37 379.5 a4.13 4.13 0 1 0 8.26 0 a4.13 4.13 0 1 0 -8.26 0zM1035.37 412.5 a4.13 4.13 0 1 0 8.26 0 a4.13 4.13 0 1 0 -8.26 0zM1299.37 412.5 a4.13 4.13 0 1 0 8.26 0 a4.13 4.13 0 1 0 -8.26 0zM969.37 346.5 a4.13 4.13 0 1 0 8.26 0 a4.13 4.13 0 1 0 -8.26 0z" fill="black"></path>
            <path d="M1365.37 115.5 a4.13 4.13 0 1 0 8.26 0 a4.13 4.13 0 1 0 -8.26 0zM1299.37 82.5 a4.13 4.13 0 1 0 8.26 0 a4.13 4.13 0 1 0 -8.26 0z" fill="black"></path>
        </mask>
    </defs>
</svg>