<svg xmlns="http://www.w3.org/2000/svg" version="1.1" xmlns:xlink="http://www.w3.org/1999/xlink" xmlns:svgjs="http://svgjs.com/svgjs" width="1440" height="560" preserveAspectRatio="none" viewBox="0 0 1440 560">
    <g mask="url(&quot;#SvgjsMask1279&quot;)" fill="none">
        <path d="M -458.0749587800585,196 C -362.07,249.2 -170.07,456.2 21.925041219941477,462 C 213.93,467.8 309.93,251 501.9250412199415,225 C 693.93,199 789.93,365 981.9250412199415,332 C 1173.93,299 1370.31,37.6 1461.9250412199415,60 C 1553.54,82.4 1444.39,367.2 1440,444" stroke="rgba(255, 186, 147, 1)" stroke-width="2"></path>
        <path d="M -513.6156817888716,56 C -417.62,142.6 -225.62,459.6 -33.61568178887154,489 C 158.38,518.4 254.38,220 446.38431821112846,203 C 638.38,186 734.38,390 926.3843182111284,404 C 1118.38,418 1303.66,256 1406.3843182111284,273 C 1509.11,290 1433.28,445.8 1440,489" stroke="rgba(254, 208, 73, 1)" stroke-width="2"></path>
        <path d="M -182.74683361176227,112 C -86.75,152.4 105.25,289.6 297.25316638823773,314 C 489.25,338.4 585.25,227 777.2531663882378,234 C 969.25,241 1065.25,383.2 1257.2531663882378,349 C 1449.25,314.8 1700.7,68 1737.2531663882378,63 C 1773.8,58 1499.45,271.8 1440,324" stroke="rgba(254, 208, 73, 1)" stroke-width="2"></path>
        <path d="M -164.13454936996993,144 C -68.13,186.4 123.87,346.6 315.86545063003007,356 C 507.87,365.4 603.87,166.2 795.8654506300301,191 C 987.87,215.8 1083.87,484.4 1275.86545063003,480 C 1467.87,475.6 1723.04,206.4 1755.86545063003,169 C 1788.69,131.6 1503.17,268.2 1440,293" stroke="rgba(254, 208, 73, 1)" stroke-width="2"></path>
        <path d="M -503.83553097282334,103 C -407.84,165.6 -215.84,387.6 -23.835530972823342,416 C 168.16,444.4 264.16,253.2 456.16446902717666,245 C 648.16,236.8 744.16,387.2 936.1644690271767,375 C 1128.16,362.8 1315.4,180 1416.1644690271767,184 C 1516.93,188 1435.23,352.8 1440,395" stroke="rgba(145, 199, 136, 1)" stroke-width="2"></path>
        <path d="M -259.93138215845124,382 C -163.93,352 28.07,215.2 220.0686178415488,232 C 412.07,248.8 508.07,466 700.0686178415488,466 C 892.07,466 988.07,250 1180.0686178415488,232 C 1372.07,214 1608.08,391.4 1660.0686178415488,376 C 1712.05,360.6 1484.01,199.2 1440,155" stroke="rgba(254, 208, 73, 1)" stroke-width="2"></path>
        <path d="M -563.414870870417,374 C -467.41,310.6 -275.41,58.6 -83.41487087041692,57 C 108.59,55.4 204.59,336.8 396.5851291295831,366 C 588.59,395.2 684.59,175.8 876.585129129583,203 C 1068.59,230.2 1243.9,507 1356.585129129583,502 C 1469.27,497 1423.32,242.8 1440,178" stroke="rgba(255, 186, 147, 1)" stroke-width="2"></path>
        <path d="M -360.79362897709245,317 C -264.79,302 -72.79,242.4 119.20637102290752,242 C 311.21,241.6 407.21,320.8 599.2063710229075,315 C 791.21,309.2 887.21,190.2 1079.2063710229074,213 C 1271.21,235.8 1487.05,452 1559.2063710229074,429 C 1631.37,406 1463.84,164.2 1440,98" stroke="rgba(193, 161, 211, 1)" stroke-width="2"></path>
        <path d="M -389.08332556830305,157 C -293.08,224.6 -101.08,480.8 90.91667443169698,495 C 282.92,509.2 378.92,258.4 570.916674431697,228 C 762.92,197.6 858.92,357.2 1050.916674431697,343 C 1242.92,328.8 1453.1,153.2 1530.916674431697,157 C 1608.73,160.8 1458.18,321 1440,362" stroke="rgba(193, 161, 211, 1)" stroke-width="2"></path>
        <path d="M -187.3065647757536,111 C -91.31,179.8 100.69,458.6 292.6934352242464,455 C 484.69,451.4 580.69,125 772.6934352242464,93 C 964.69,61 1060.69,282.6 1252.6934352242465,295 C 1444.69,307.4 1695.23,117.4 1732.6934352242465,155 C 1770.15,192.6 1498.54,417.4 1440,483" stroke="rgba(138, 182, 214, 1)" stroke-width="2"></path>
    </g>
    <defs>
        <mask id="SvgjsMask1279">
            <rect width="1440" height="560" fill="#ffffff"></rect>
        </mask>
    </defs>
</svg>