<svg xmlns="http://www.w3.org/2000/svg" version="1.1" xmlns:xlink="http://www.w3.org/1999/xlink" xmlns:svgjs="http://svgjs.com/svgjs" width="1440" height="560" preserveAspectRatio="none" viewBox="0 0 1440 560">
    <g mask="url(&quot;#SvgjsMask1027&quot;)" fill="none">
        <path d="M500.47 217.92L517.58 217.92L517.58 235.03L500.47 235.03z" stroke="rgba(240, 185, 23, 1)"></path>
        <path d="M964.47 48.17a45.83 45.83 0 1 0-4.17-91.57z" fill="rgba(240, 185, 23, 1)"></path>
        <path d="M572 221.9 a55.79 55.79 0 1 0 111.58 0 a55.79 55.79 0 1 0 -111.58 0z" stroke="rgba(240, 185, 23, 1)"></path>
        <path d="M1025.03 476.58 a49.91 49.91 0 1 0 99.82 0 a49.91 49.91 0 1 0 -99.82 0z" fill="rgba(20, 39, 78, 1)"></path>
        <path d="M989.68 410.77a8.35 8.35 0 1 0 14.28 8.67z" fill="rgba(11, 22, 42, 1)"></path>
        <path d="M697.02 33.63a7.12 7.12 0 1 0 2 14.09z" stroke="rgba(11, 22, 42, 1)"></path>
        <path d="M418.11 105.01a52.79 52.79 0 1 0-42.67 96.58z" stroke="rgba(240, 185, 23, 1)"></path>
        <path d="M651.11 533.97 a42 42 0 1 0 84 0 a42 42 0 1 0 -84 0z" fill="rgba(20, 39, 78, 1)"></path>
        <path d="M1218.99 188.34 a39.59 39.59 0 1 0 79.18 0 a39.59 39.59 0 1 0 -79.18 0z" fill="rgba(11, 22, 42, 1)"></path>
        <path d="M478.99 448.68L526.86 448.68L526.86 496.55L478.99 496.55z" fill="rgba(11, 22, 42, 1)"></path>
        <path d="M1316.55 546.78a47.13 47.13 0 1 0 79.18-51.14z" stroke="rgba(11, 22, 42, 1)"></path>
        <path d="M31.86 263.64 a25.75 25.75 0 1 0 51.5 0 a25.75 25.75 0 1 0 -51.5 0z" fill="rgba(20, 39, 78, 1)"></path>
        <path d="M124.23 91.44L158.01 91.44L158.01 97.29L124.23 97.29z" fill="rgba(11, 22, 42, 1)"></path>
        <path d="M1377.11 142.58a44.64 44.64 0 1 0 66.9 59.12z" fill="rgba(11, 22, 42, 1)"></path>
        <path d="M865.81 445.58L903.11 445.58L903.11 482.88L865.81 482.88z" stroke="rgba(240, 185, 23, 1)"></path>
        <path d="M1286.82 457.71 a42.6 42.6 0 1 0 85.2 0 a42.6 42.6 0 1 0 -85.2 0z" stroke="rgba(240, 185, 23, 1)"></path>
        <path d="M1008.53 515.86a22.86 22.86 0 1 0 20.42 40.9z" fill="rgba(240, 185, 23, 1)"></path>
        <path d="M776.19 186.68a2.12 2.12 0 1 0-2.46-3.45z" stroke="rgba(11, 22, 42, 1)"></path>
        <path d="M593.68 553.49L597 553.49L597 598.76L593.68 598.76z" stroke="rgba(11, 22, 42, 1)"></path>
        <path d="M1163.72 174.65L1216.41 174.65L1216.41 227.34L1163.72 227.34z" fill="rgba(20, 39, 78, 1)"></path>
        <path d="M912.37 191.59a25.22 25.22 0 1 0-31.18-39.65z" stroke="rgba(20, 39, 78, 1)"></path>
        <path d="M374.24 138.34L397.37 138.34L397.37 145.89L374.24 145.89z" stroke="rgba(11, 22, 42, 1)"></path>
        <path d="M771.34 290.87L804.73 290.87L804.73 345.55L771.34 345.55z" stroke="rgba(240, 185, 23, 1)"></path>
        <path d="M1347.68 392.91 a23.29 23.29 0 1 0 46.58 0 a23.29 23.29 0 1 0 -46.58 0z" stroke="rgba(20, 39, 78, 1)"></path>
        <path d="M876.52 333.69a38.04 38.04 0 1 0 28.44 70.56z" fill="rgba(20, 39, 78, 1)"></path>
        <path d="M574.51 510.29 a16.61 16.61 0 1 0 33.22 0 a16.61 16.61 0 1 0 -33.22 0z" fill="rgba(20, 39, 78, 1)"></path>
        <path d="M1049.89 182.68L1060.32 182.68L1060.32 201.49L1049.89 201.49z" fill="rgba(11, 22, 42, 1)"></path>
        <path d="M1267.43 354.18a15.15 15.15 0 1 0 7.63-29.32z" fill="rgba(240, 185, 23, 1)"></path>
        <path d="M1205.61 289.51 a10.58 10.58 0 1 0 21.16 0 a10.58 10.58 0 1 0 -21.16 0z" stroke="rgba(11, 22, 42, 1)"></path>
        <path d="M371.63 86.23L401.06 86.23L401.06 106.12L371.63 106.12z" fill="rgba(20, 39, 78, 1)"></path>
        <path d="M262.04 149.16L300.67 149.16L300.67 187.79L262.04 187.79z" fill="rgba(20, 39, 78, 1)"></path>
        <path d="M1334.87 390.38a11.69 11.69 0 1 0-20.2 11.76z" stroke="rgba(11, 22, 42, 1)"></path>
        <path d="M302.42 415.15L323.04 415.15L323.04 440.66L302.42 440.66z" stroke="rgba(11, 22, 42, 1)"></path>
    </g>
    <defs>
        <mask id="SvgjsMask1027">
            <rect width="1440" height="560" fill="#ffffff"></rect>
        </mask>
    </defs>
</svg>