<svg xmlns="http://www.w3.org/2000/svg" version="1.1" xmlns:xlink="http://www.w3.org/1999/xlink" xmlns:svgjs="http://svgjs.com/svgjs" width="1440" height="560" preserveAspectRatio="none" viewBox="0 0 1440 560">
    <g mask="url(&quot;#SvgjsMask1346&quot;)" fill="none">
        <path d="M267.86 81.6L335.41 120.6L335.41 198.6L267.86 237.6L200.3 198.6L200.3 120.6zM335.41 432.6L402.96 471.6L402.96 549.6L335.41 588.6L267.86 549.6L267.86 471.6zM673.17 81.6L740.72 120.6L740.72 198.6L673.17 237.6L605.62 198.6L605.62 120.6zM875.82 -35.4L943.37 3.6L943.37 81.6L875.82 120.6L808.27 81.6L808.27 3.6zM1010.93 432.6L1078.48 471.6L1078.48 549.6L1010.93 588.6L943.37 549.6L943.37 471.6zM1146.03 198.6L1213.58 237.6L1213.58 315.6L1146.03 354.6L1078.48 315.6L1078.48 237.6zM1213.58 315.6L1281.13 354.6L1281.13 432.6L1213.58 471.6L1146.03 432.6L1146.03 354.6zM1281.13 432.6L1348.69 471.6L1348.69 549.6L1281.13 588.6L1213.58 549.6L1213.58 471.6zM1416.24 -35.4L1483.79 3.6L1483.79 81.6L1416.24 120.6L1348.69 81.6L1348.69 3.6z" stroke="rgba(11, 22, 42, 1)" stroke-width="2"></path>
        <path d="M260.06 81.6 a7.8 7.8 0 1 0 15.6 0 a7.8 7.8 0 1 0 -15.6 0zM327.61 120.6 a7.8 7.8 0 1 0 15.6 0 a7.8 7.8 0 1 0 -15.6 0zM327.61 198.6 a7.8 7.8 0 1 0 15.6 0 a7.8 7.8 0 1 0 -15.6 0zM260.06 237.6 a7.8 7.8 0 1 0 15.6 0 a7.8 7.8 0 1 0 -15.6 0zM192.5 198.6 a7.8 7.8 0 1 0 15.6 0 a7.8 7.8 0 1 0 -15.6 0zM192.5 120.6 a7.8 7.8 0 1 0 15.6 0 a7.8 7.8 0 1 0 -15.6 0zM327.61 432.6 a7.8 7.8 0 1 0 15.6 0 a7.8 7.8 0 1 0 -15.6 0zM395.16 471.6 a7.8 7.8 0 1 0 15.6 0 a7.8 7.8 0 1 0 -15.6 0zM395.16 549.6 a7.8 7.8 0 1 0 15.6 0 a7.8 7.8 0 1 0 -15.6 0zM327.61 588.6 a7.8 7.8 0 1 0 15.6 0 a7.8 7.8 0 1 0 -15.6 0zM260.06 549.6 a7.8 7.8 0 1 0 15.6 0 a7.8 7.8 0 1 0 -15.6 0zM260.06 471.6 a7.8 7.8 0 1 0 15.6 0 a7.8 7.8 0 1 0 -15.6 0zM665.37 81.6 a7.8 7.8 0 1 0 15.6 0 a7.8 7.8 0 1 0 -15.6 0zM732.92 120.6 a7.8 7.8 0 1 0 15.6 0 a7.8 7.8 0 1 0 -15.6 0zM732.92 198.6 a7.8 7.8 0 1 0 15.6 0 a7.8 7.8 0 1 0 -15.6 0zM665.37 237.6 a7.8 7.8 0 1 0 15.6 0 a7.8 7.8 0 1 0 -15.6 0zM597.82 198.6 a7.8 7.8 0 1 0 15.6 0 a7.8 7.8 0 1 0 -15.6 0zM597.82 120.6 a7.8 7.8 0 1 0 15.6 0 a7.8 7.8 0 1 0 -15.6 0zM868.02 -35.4 a7.8 7.8 0 1 0 15.6 0 a7.8 7.8 0 1 0 -15.6 0zM935.57 3.6 a7.8 7.8 0 1 0 15.6 0 a7.8 7.8 0 1 0 -15.6 0zM935.57 81.6 a7.8 7.8 0 1 0 15.6 0 a7.8 7.8 0 1 0 -15.6 0zM868.02 120.6 a7.8 7.8 0 1 0 15.6 0 a7.8 7.8 0 1 0 -15.6 0zM800.47 81.6 a7.8 7.8 0 1 0 15.6 0 a7.8 7.8 0 1 0 -15.6 0zM800.47 3.6 a7.8 7.8 0 1 0 15.6 0 a7.8 7.8 0 1 0 -15.6 0zM1003.13 432.6 a7.8 7.8 0 1 0 15.6 0 a7.8 7.8 0 1 0 -15.6 0zM1070.68 471.6 a7.8 7.8 0 1 0 15.6 0 a7.8 7.8 0 1 0 -15.6 0zM1070.68 549.6 a7.8 7.8 0 1 0 15.6 0 a7.8 7.8 0 1 0 -15.6 0zM1003.13 588.6 a7.8 7.8 0 1 0 15.6 0 a7.8 7.8 0 1 0 -15.6 0zM935.57 549.6 a7.8 7.8 0 1 0 15.6 0 a7.8 7.8 0 1 0 -15.6 0zM935.57 471.6 a7.8 7.8 0 1 0 15.6 0 a7.8 7.8 0 1 0 -15.6 0zM1138.23 198.6 a7.8 7.8 0 1 0 15.6 0 a7.8 7.8 0 1 0 -15.6 0zM1205.78 237.6 a7.8 7.8 0 1 0 15.6 0 a7.8 7.8 0 1 0 -15.6 0zM1205.78 315.6 a7.8 7.8 0 1 0 15.6 0 a7.8 7.8 0 1 0 -15.6 0zM1138.23 354.6 a7.8 7.8 0 1 0 15.6 0 a7.8 7.8 0 1 0 -15.6 0zM1070.68 315.6 a7.8 7.8 0 1 0 15.6 0 a7.8 7.8 0 1 0 -15.6 0zM1070.68 237.6 a7.8 7.8 0 1 0 15.6 0 a7.8 7.8 0 1 0 -15.6 0zM1273.33 354.6 a7.8 7.8 0 1 0 15.6 0 a7.8 7.8 0 1 0 -15.6 0zM1273.33 432.6 a7.8 7.8 0 1 0 15.6 0 a7.8 7.8 0 1 0 -15.6 0zM1205.78 471.6 a7.8 7.8 0 1 0 15.6 0 a7.8 7.8 0 1 0 -15.6 0zM1138.23 432.6 a7.8 7.8 0 1 0 15.6 0 a7.8 7.8 0 1 0 -15.6 0zM1340.89 471.6 a7.8 7.8 0 1 0 15.6 0 a7.8 7.8 0 1 0 -15.6 0zM1340.89 549.6 a7.8 7.8 0 1 0 15.6 0 a7.8 7.8 0 1 0 -15.6 0zM1273.33 588.6 a7.8 7.8 0 1 0 15.6 0 a7.8 7.8 0 1 0 -15.6 0zM1205.78 549.6 a7.8 7.8 0 1 0 15.6 0 a7.8 7.8 0 1 0 -15.6 0zM1408.44 -35.4 a7.8 7.8 0 1 0 15.6 0 a7.8 7.8 0 1 0 -15.6 0zM1475.99 3.6 a7.8 7.8 0 1 0 15.6 0 a7.8 7.8 0 1 0 -15.6 0zM1475.99 81.6 a7.8 7.8 0 1 0 15.6 0 a7.8 7.8 0 1 0 -15.6 0zM1408.44 120.6 a7.8 7.8 0 1 0 15.6 0 a7.8 7.8 0 1 0 -15.6 0zM1340.89 81.6 a7.8 7.8 0 1 0 15.6 0 a7.8 7.8 0 1 0 -15.6 0zM1340.89 3.6 a7.8 7.8 0 1 0 15.6 0 a7.8 7.8 0 1 0 -15.6 0z" fill="rgba(11, 22, 42, 1)"></path>
        <path d="M220.88 64.31L264.19 89.31L264.19 139.31L220.88 164.31L177.58 139.31L177.58 89.31zM264.19 -10.69L307.49 14.31L307.49 64.31L264.19 89.31L220.88 64.31L220.88 14.31zM264.19 139.31L307.49 164.31L307.49 214.31L264.19 239.31L220.88 214.31L220.88 164.31zM350.79 -10.69L394.09 14.31L394.09 64.31L350.79 89.31L307.49 64.31L307.49 14.31zM394.09 214.31L437.4 239.31L437.4 289.31L394.09 314.31L350.79 289.31L350.79 239.31zM437.4 139.31L480.7 164.31L480.7 214.31L437.4 239.31L394.09 214.31L394.09 164.31zM610.61 289.31L653.91 314.31L653.91 364.31L610.61 389.31L567.3 364.31L567.3 314.31zM610.61 439.31L653.91 464.31L653.91 514.31L610.61 539.31L567.3 514.31L567.3 464.31zM827.12 364.31L870.42 389.31L870.42 439.31L827.12 464.31L783.82 439.31L783.82 389.31zM870.42 289.31L913.72 314.31L913.72 364.31L870.42 389.31L827.12 364.31L827.12 314.31zM913.72 364.31L957.03 389.31L957.03 439.31L913.72 464.31L870.42 439.31L870.42 389.31zM957.03 139.31L1000.33 164.31L1000.33 214.31L957.03 239.31L913.72 214.31L913.72 164.31zM1216.84 289.31L1260.14 314.31L1260.14 364.31L1216.84 389.31L1173.54 364.31L1173.54 314.31zM1303.44 139.31L1346.75 164.31L1346.75 214.31L1303.44 239.31L1260.14 214.31L1260.14 164.31zM1303.44 289.31L1346.75 314.31L1346.75 364.31L1303.44 389.31L1260.14 364.31L1260.14 314.31zM1390.05 139.31L1433.35 164.31L1433.35 214.31L1390.05 239.31L1346.75 214.31L1346.75 164.31z" stroke="rgba(20, 39, 78, 1)" stroke-width="2"></path>
        <path d="M215.88 64.31 a5 5 0 1 0 10 0 a5 5 0 1 0 -10 0zM259.19 89.31 a5 5 0 1 0 10 0 a5 5 0 1 0 -10 0zM259.19 139.31 a5 5 0 1 0 10 0 a5 5 0 1 0 -10 0zM215.88 164.31 a5 5 0 1 0 10 0 a5 5 0 1 0 -10 0zM172.58 139.31 a5 5 0 1 0 10 0 a5 5 0 1 0 -10 0zM172.58 89.31 a5 5 0 1 0 10 0 a5 5 0 1 0 -10 0zM259.19 -10.69 a5 5 0 1 0 10 0 a5 5 0 1 0 -10 0zM302.49 14.31 a5 5 0 1 0 10 0 a5 5 0 1 0 -10 0zM302.49 64.31 a5 5 0 1 0 10 0 a5 5 0 1 0 -10 0zM215.88 14.31 a5 5 0 1 0 10 0 a5 5 0 1 0 -10 0zM302.49 164.31 a5 5 0 1 0 10 0 a5 5 0 1 0 -10 0zM302.49 214.31 a5 5 0 1 0 10 0 a5 5 0 1 0 -10 0zM259.19 239.31 a5 5 0 1 0 10 0 a5 5 0 1 0 -10 0zM215.88 214.31 a5 5 0 1 0 10 0 a5 5 0 1 0 -10 0zM345.79 -10.69 a5 5 0 1 0 10 0 a5 5 0 1 0 -10 0zM389.09 14.31 a5 5 0 1 0 10 0 a5 5 0 1 0 -10 0zM389.09 64.31 a5 5 0 1 0 10 0 a5 5 0 1 0 -10 0zM345.79 89.31 a5 5 0 1 0 10 0 a5 5 0 1 0 -10 0zM389.09 214.31 a5 5 0 1 0 10 0 a5 5 0 1 0 -10 0zM432.4 239.31 a5 5 0 1 0 10 0 a5 5 0 1 0 -10 0zM432.4 289.31 a5 5 0 1 0 10 0 a5 5 0 1 0 -10 0zM389.09 314.31 a5 5 0 1 0 10 0 a5 5 0 1 0 -10 0zM345.79 289.31 a5 5 0 1 0 10 0 a5 5 0 1 0 -10 0zM345.79 239.31 a5 5 0 1 0 10 0 a5 5 0 1 0 -10 0zM432.4 139.31 a5 5 0 1 0 10 0 a5 5 0 1 0 -10 0zM475.7 164.31 a5 5 0 1 0 10 0 a5 5 0 1 0 -10 0zM475.7 214.31 a5 5 0 1 0 10 0 a5 5 0 1 0 -10 0zM389.09 164.31 a5 5 0 1 0 10 0 a5 5 0 1 0 -10 0zM605.61 289.31 a5 5 0 1 0 10 0 a5 5 0 1 0 -10 0zM648.91 314.31 a5 5 0 1 0 10 0 a5 5 0 1 0 -10 0zM648.91 364.31 a5 5 0 1 0 10 0 a5 5 0 1 0 -10 0zM605.61 389.31 a5 5 0 1 0 10 0 a5 5 0 1 0 -10 0zM562.3 364.31 a5 5 0 1 0 10 0 a5 5 0 1 0 -10 0zM562.3 314.31 a5 5 0 1 0 10 0 a5 5 0 1 0 -10 0zM605.61 439.31 a5 5 0 1 0 10 0 a5 5 0 1 0 -10 0zM648.91 464.31 a5 5 0 1 0 10 0 a5 5 0 1 0 -10 0zM648.91 514.31 a5 5 0 1 0 10 0 a5 5 0 1 0 -10 0zM605.61 539.31 a5 5 0 1 0 10 0 a5 5 0 1 0 -10 0zM562.3 514.31 a5 5 0 1 0 10 0 a5 5 0 1 0 -10 0zM562.3 464.31 a5 5 0 1 0 10 0 a5 5 0 1 0 -10 0zM822.12 364.31 a5 5 0 1 0 10 0 a5 5 0 1 0 -10 0zM865.42 389.31 a5 5 0 1 0 10 0 a5 5 0 1 0 -10 0zM865.42 439.31 a5 5 0 1 0 10 0 a5 5 0 1 0 -10 0zM822.12 464.31 a5 5 0 1 0 10 0 a5 5 0 1 0 -10 0zM778.82 439.31 a5 5 0 1 0 10 0 a5 5 0 1 0 -10 0zM778.82 389.31 a5 5 0 1 0 10 0 a5 5 0 1 0 -10 0zM865.42 289.31 a5 5 0 1 0 10 0 a5 5 0 1 0 -10 0zM908.72 314.31 a5 5 0 1 0 10 0 a5 5 0 1 0 -10 0zM908.72 364.31 a5 5 0 1 0 10 0 a5 5 0 1 0 -10 0zM822.12 314.31 a5 5 0 1 0 10 0 a5 5 0 1 0 -10 0zM952.03 389.31 a5 5 0 1 0 10 0 a5 5 0 1 0 -10 0zM952.03 439.31 a5 5 0 1 0 10 0 a5 5 0 1 0 -10 0zM908.72 464.31 a5 5 0 1 0 10 0 a5 5 0 1 0 -10 0zM952.03 139.31 a5 5 0 1 0 10 0 a5 5 0 1 0 -10 0zM995.33 164.31 a5 5 0 1 0 10 0 a5 5 0 1 0 -10 0zM995.33 214.31 a5 5 0 1 0 10 0 a5 5 0 1 0 -10 0zM952.03 239.31 a5 5 0 1 0 10 0 a5 5 0 1 0 -10 0zM908.72 214.31 a5 5 0 1 0 10 0 a5 5 0 1 0 -10 0zM908.72 164.31 a5 5 0 1 0 10 0 a5 5 0 1 0 -10 0zM1211.84 289.31 a5 5 0 1 0 10 0 a5 5 0 1 0 -10 0zM1255.14 314.31 a5 5 0 1 0 10 0 a5 5 0 1 0 -10 0zM1255.14 364.31 a5 5 0 1 0 10 0 a5 5 0 1 0 -10 0zM1211.84 389.31 a5 5 0 1 0 10 0 a5 5 0 1 0 -10 0zM1168.54 364.31 a5 5 0 1 0 10 0 a5 5 0 1 0 -10 0zM1168.54 314.31 a5 5 0 1 0 10 0 a5 5 0 1 0 -10 0zM1298.44 139.31 a5 5 0 1 0 10 0 a5 5 0 1 0 -10 0zM1341.75 164.31 a5 5 0 1 0 10 0 a5 5 0 1 0 -10 0zM1341.75 214.31 a5 5 0 1 0 10 0 a5 5 0 1 0 -10 0zM1298.44 239.31 a5 5 0 1 0 10 0 a5 5 0 1 0 -10 0zM1255.14 214.31 a5 5 0 1 0 10 0 a5 5 0 1 0 -10 0zM1255.14 164.31 a5 5 0 1 0 10 0 a5 5 0 1 0 -10 0zM1298.44 289.31 a5 5 0 1 0 10 0 a5 5 0 1 0 -10 0zM1341.75 314.31 a5 5 0 1 0 10 0 a5 5 0 1 0 -10 0zM1341.75 364.31 a5 5 0 1 0 10 0 a5 5 0 1 0 -10 0zM1298.44 389.31 a5 5 0 1 0 10 0 a5 5 0 1 0 -10 0zM1385.05 139.31 a5 5 0 1 0 10 0 a5 5 0 1 0 -10 0zM1428.35 164.31 a5 5 0 1 0 10 0 a5 5 0 1 0 -10 0zM1428.35 214.31 a5 5 0 1 0 10 0 a5 5 0 1 0 -10 0zM1385.05 239.31 a5 5 0 1 0 10 0 a5 5 0 1 0 -10 0z" fill="rgba(20, 39, 78, 1)"></path>
        <path d="M34.02 24.19L66.07 42.69L66.07 79.69L34.02 98.19L1.98 79.69L1.98 42.69zM1.98 412.69L34.02 431.19L34.02 468.19L1.98 486.69L-30.06 468.19L-30.06 431.19zM1.98 523.69L34.02 542.19L34.02 579.19L1.98 597.69L-30.06 579.19L-30.06 542.19zM66.07 -31.31L98.11 -12.81L98.11 24.19L66.07 42.69L34.02 24.19L34.02 -12.81zM66.07 301.69L98.11 320.19L98.11 357.19L66.07 375.69L34.02 357.19L34.02 320.19zM130.16 -31.31L162.2 -12.81L162.2 24.19L130.16 42.69L98.11 24.19L98.11 -12.81zM130.16 79.69L162.2 98.19L162.2 135.19L130.16 153.69L98.11 135.19L98.11 98.19zM194.24 301.69L226.29 320.19L226.29 357.19L194.24 375.69L162.2 357.19L162.2 320.19zM226.29 357.19L258.33 375.69L258.33 412.69L226.29 431.19L194.24 412.69L194.24 375.69zM194.24 412.69L226.29 431.19L226.29 468.19L194.24 486.69L162.2 468.19L162.2 431.19zM226.29 468.19L258.33 486.69L258.33 523.69L226.29 542.19L194.24 523.69L194.24 486.69zM290.37 24.19L322.42 42.69L322.42 79.69L290.37 98.19L258.33 79.69L258.33 42.69zM258.33 190.69L290.37 209.19L290.37 246.19L258.33 264.69L226.29 246.19L226.29 209.19zM354.46 24.19L386.51 42.69L386.51 79.69L354.46 98.19L322.42 79.69L322.42 42.69zM354.46 357.19L386.51 375.69L386.51 412.69L354.46 431.19L322.42 412.69L322.42 375.69zM354.46 468.19L386.51 486.69L386.51 523.69L354.46 542.19L322.42 523.69L322.42 486.69zM386.51 -31.31L418.55 -12.81L418.55 24.19L386.51 42.69L354.46 24.19L354.46 -12.81zM418.55 246.19L450.59 264.69L450.59 301.69L418.55 320.19L386.51 301.69L386.51 264.69zM482.64 468.19L514.68 486.69L514.68 523.69L482.64 542.19L450.59 523.69L450.59 486.69zM578.77 -31.31L610.81 -12.81L610.81 24.19L578.77 42.69L546.73 24.19L546.73 -12.81zM578.77 412.69L610.81 431.19L610.81 468.19L578.77 486.69L546.73 468.19L546.73 431.19zM610.81 468.19L642.86 486.69L642.86 523.69L610.81 542.19L578.77 523.69L578.77 486.69zM642.86 190.69L674.9 209.19L674.9 246.19L642.86 264.69L610.81 246.19L610.81 209.19zM674.9 246.19L706.94 264.69L706.94 301.69L674.9 320.19L642.86 301.69L642.86 264.69zM674.9 468.19L706.94 486.69L706.94 523.69L674.9 542.19L642.86 523.69L642.86 486.69zM771.03 -31.31L803.08 -12.81L803.08 24.19L771.03 42.69L738.99 24.19L738.99 -12.81zM771.03 79.69L803.08 98.19L803.08 135.19L771.03 153.69L738.99 135.19L738.99 98.19zM803.08 135.19L835.12 153.69L835.12 190.69L803.08 209.19L771.03 190.69L771.03 153.69zM867.16 135.19L899.21 153.69L899.21 190.69L867.16 209.19L835.12 190.69L835.12 153.69zM931.25 24.19L963.3 42.69L963.3 79.69L931.25 98.19L899.21 79.69L899.21 42.69zM931.25 246.19L963.3 264.69L963.3 301.69L931.25 320.19L899.21 301.69L899.21 264.69zM963.3 79.69L995.34 98.19L995.34 135.19L963.3 153.69L931.25 135.19L931.25 98.19zM1059.43 357.19L1091.47 375.69L1091.47 412.69L1059.43 431.19L1027.38 412.69L1027.38 375.69zM1187.6 357.19L1219.65 375.69L1219.65 412.69L1187.6 431.19L1155.56 412.69L1155.56 375.69zM1219.65 79.69L1251.69 98.19L1251.69 135.19L1219.65 153.69L1187.6 135.19L1187.6 98.19zM1251.69 357.19L1283.73 375.69L1283.73 412.69L1251.69 431.19L1219.65 412.69L1219.65 375.69zM1283.73 79.69L1315.78 98.19L1315.78 135.19L1283.73 153.69L1251.69 135.19L1251.69 98.19zM1315.78 468.19L1347.82 486.69L1347.82 523.69L1315.78 542.19L1283.73 523.69L1283.73 486.69zM1379.87 24.19L1411.91 42.69L1411.91 79.69L1379.87 98.19L1347.82 79.69L1347.82 42.69zM1379.87 135.19L1411.91 153.69L1411.91 190.69L1379.87 209.19L1347.82 190.69L1347.82 153.69zM1379.87 246.19L1411.91 264.69L1411.91 301.69L1379.87 320.19L1347.82 301.69L1347.82 264.69zM1379.87 357.19L1411.91 375.69L1411.91 412.69L1379.87 431.19L1347.82 412.69L1347.82 375.69zM1347.82 412.69L1379.87 431.19L1379.87 468.19L1347.82 486.69L1315.78 468.19L1315.78 431.19zM1411.91 -31.31L1443.95 -12.81L1443.95 24.19L1411.91 42.69L1379.87 24.19L1379.87 -12.81zM1411.91 190.69L1443.95 209.19L1443.95 246.19L1411.91 264.69L1379.87 246.19L1379.87 209.19z" stroke="rgba(240, 185, 23, 1)" stroke-width="2"></path>
    </g>
    <defs>
        <mask id="SvgjsMask1346">
            <rect width="1440" height="560" fill="#ffffff"></rect>
        </mask>
    </defs>
</svg>